<svg width="24" height="24" viewBox="0 0 24 24" fill="none" xmlns="http://www.w3.org/2000/svg">
<path d="M4.07994 3.358H19.9199C20.1083 3.35812 20.2928 3.41143 20.4522 3.51178C20.6115 3.61214 20.7393 3.75547 20.8208 3.92527C20.9023 4.09507 20.9342 4.28443 20.9128 4.47156C20.8915 4.65869 20.8177 4.83597 20.6999 4.983L14.2199 13.084C14.0777 13.2613 14.0001 13.4817 13.9999 13.709V18.858C13.9999 19.0132 13.9638 19.1664 13.8944 19.3052C13.8249 19.4441 13.7241 19.5649 13.5999 19.658L11.5999 21.158C11.4514 21.2694 11.2747 21.3373 11.0897 21.354C10.9048 21.3706 10.7188 21.3355 10.5527 21.2524C10.3866 21.1694 10.2469 21.0417 10.1493 20.8837C10.0517 20.7258 9.99994 20.5437 9.99994 20.358V13.708C9.99954 13.4811 9.92196 13.261 9.77994 13.084L3.29994 4.983C3.18223 4.83597 3.10842 4.65869 3.08704 4.47156C3.06565 4.28443 3.09754 4.09507 3.17904 3.92527C3.26055 3.75547 3.38835 3.61214 3.54773 3.51178C3.70711 3.41143 3.8916 3.35812 4.07994 3.358V3.358Z" fill="black"/>
</svg>
