<svg width="16" height="16" viewBox="0 0 16 16" fill="none" xmlns="http://www.w3.org/2000/svg">
<path d="M6.78667 11.3386C6.86667 11.3386 6.92733 11.336 6.96733 11.3306C7.01426 11.3212 7.05657 11.296 7.08733 11.2593C7.12733 11.2173 7.14733 11.1566 7.14733 11.0766L7.14467 10.7053C7.14267 10.4686 7.142 10.2806 7.142 10.1426L7.01667 10.1646C6.91637 10.1804 6.81481 10.1867 6.71333 10.1833C6.58584 10.1811 6.45875 10.1684 6.33333 10.1453C6.20024 10.1205 6.07499 10.0643 5.968 9.98132C5.85584 9.89647 5.77214 9.77951 5.728 9.64598L5.67333 9.51998C5.62735 9.42076 5.5696 9.32742 5.50133 9.24198C5.44004 9.15438 5.35836 9.08299 5.26333 9.03398L5.22533 9.00732C5.19916 8.98804 5.17544 8.96565 5.15467 8.94065C5.13451 8.91793 5.11788 8.89231 5.10533 8.86465C5.09467 8.83932 5.10333 8.81798 5.132 8.80198C5.18231 8.78176 5.23659 8.77332 5.29067 8.77732L5.4 8.79398C5.47333 8.80798 5.56333 8.85198 5.67067 8.92465C5.77733 8.99798 5.866 9.09198 5.93533 9.20865C6.01933 9.35798 6.12 9.47198 6.23867 9.54998C6.34341 9.62385 6.46785 9.66471 6.596 9.66732C6.716 9.66732 6.82 9.65865 6.90733 9.64065C6.99234 9.62302 7.07493 9.59527 7.15333 9.55798C7.186 9.31465 7.27467 9.12665 7.42 8.99598C7.23132 8.97732 7.04434 8.94433 6.86067 8.89732C6.68133 8.84789 6.50888 8.77622 6.34733 8.68398C6.17815 8.5922 6.02866 8.46807 5.90733 8.31865C5.79133 8.17265 5.696 7.98198 5.62067 7.74532C5.54212 7.47945 5.50458 7.20317 5.50933 6.92598C5.50933 6.48598 5.65333 6.11065 5.94067 5.80132C5.806 5.46998 5.81867 5.09865 5.97867 4.68732C6.08467 4.65398 6.24133 4.67865 6.44867 4.76065C6.656 4.84265 6.80867 4.91265 6.90467 4.97132C7.00133 5.02932 7.078 5.07798 7.13667 5.11798C7.47812 5.02316 7.83096 4.9756 8.18533 4.97665C8.54533 4.97665 8.89533 5.02332 9.234 5.11865L9.44067 4.98732C9.58333 4.90065 9.75067 4.81998 9.94333 4.74732C10.1367 4.67398 10.284 4.65398 10.386 4.68732C10.55 5.09865 10.5647 5.46998 10.4293 5.80065C10.7173 6.11065 10.8613 6.48532 10.8613 6.92598C10.8613 7.23532 10.824 7.50932 10.7493 7.74798C10.6747 7.98665 10.578 8.17732 10.46 8.32132C10.3367 8.46927 10.1865 8.59255 10.0173 8.68465C9.8558 8.77691 9.68335 8.84858 9.504 8.89798C9.32009 8.94482 9.13288 8.97758 8.944 8.99598C9.13333 9.15932 9.228 9.41798 9.228 9.77132V11.076C9.228 11.138 9.23733 11.188 9.25533 11.2266C9.2638 11.2451 9.2759 11.2616 9.29091 11.2752C9.30592 11.2889 9.32352 11.2993 9.34267 11.306C9.38267 11.32 9.41867 11.3293 9.44933 11.3326C9.48067 11.3366 9.52467 11.3386 9.58267 11.3386H6.78733H6.78667Z" fill="black"/>
<path d="M8 13.3333C9.41449 13.3333 10.771 12.7714 11.7712 11.7712C12.7714 10.771 13.3333 9.41447 13.3333 7.99998C13.3333 6.58549 12.7714 5.22894 11.7712 4.22874C10.771 3.22855 9.41449 2.66665 8 2.66665C6.58551 2.66665 5.22896 3.22855 4.22876 4.22874C3.22857 5.22894 2.66667 6.58549 2.66667 7.99998C2.66667 9.41447 3.22857 10.771 4.22876 11.7712C5.22896 12.7714 6.58551 13.3333 8 13.3333ZM8 14.6666C4.318 14.6666 1.33333 11.682 1.33333 7.99998C1.33333 4.31798 4.318 1.33331 8 1.33331C11.682 1.33331 14.6667 4.31798 14.6667 7.99998C14.6667 11.682 11.682 14.6666 8 14.6666Z" fill="black"/>
</svg>
