<svg width="16" height="16" viewBox="0 0 16 16" fill="none" xmlns="http://www.w3.org/2000/svg">
<path d="M10.678 1.33331H5.298C4.24677 1.33455 3.23896 1.75274 2.49569 2.49614C1.75242 3.23953 1.33439 4.24741 1.33333 5.29865L1.33333 10.6786C1.33457 11.7299 1.75276 12.7377 2.49616 13.481C3.23955 14.2242 4.24744 14.6423 5.29867 14.6433H10.6787C11.7299 14.6421 12.7377 14.2239 13.481 13.4805C14.2243 12.7371 14.6423 11.7292 14.6433 10.678V5.29798C14.6421 4.24675 14.2239 3.23894 13.4805 2.49567C12.7371 1.7524 11.7292 1.33437 10.678 1.33331V1.33331ZM13.3047 10.678C13.3047 11.0229 13.2367 11.3645 13.1047 11.6832C12.9727 12.0018 12.7792 12.2914 12.5353 12.5353C12.2914 12.7792 12.0019 12.9727 11.6832 13.1047C11.3645 13.2367 11.0229 13.3046 10.678 13.3046H5.298C4.60148 13.3045 3.93355 13.0277 3.4411 12.5351C2.94865 12.0425 2.672 11.3745 2.672 10.678V5.29798C2.67218 4.60146 2.94899 3.93353 3.44157 3.44108C3.93415 2.94863 4.60215 2.67198 5.29867 2.67198H10.6787C11.3752 2.67216 12.0431 2.94897 12.5356 3.44155C13.028 3.93412 13.3047 4.60213 13.3047 5.29865V10.6786V10.678Z" fill="black"/>
<path d="M7.988 4.54602C7.07562 4.54743 6.20102 4.91054 5.55593 5.55576C4.91084 6.20097 4.5479 7.07564 4.54667 7.98802C4.54772 8.90063 4.91068 9.77557 5.55593 10.4209C6.20119 11.0663 7.07606 11.4295 7.98867 11.4307C8.90139 11.4296 9.77643 11.0666 10.4218 10.4212C11.0672 9.77579 11.4303 8.90075 11.4313 7.98802C11.4299 7.07541 11.0666 6.20061 10.4211 5.55548C9.77562 4.91036 8.90061 4.54757 7.988 4.54669V4.54602ZM7.988 10.092C7.43016 10.092 6.89517 9.87042 6.50072 9.47597C6.10627 9.08152 5.88467 8.54653 5.88467 7.98869C5.88467 7.43085 6.10627 6.89586 6.50072 6.50141C6.89517 6.10695 7.43016 5.88535 7.988 5.88535C8.54584 5.88535 9.08083 6.10695 9.47528 6.50141C9.86973 6.89586 10.0913 7.43085 10.0913 7.98869C10.0913 8.54653 9.86973 9.08152 9.47528 9.47597C9.08083 9.87042 8.54584 10.092 7.988 10.092Z" fill="black"/>
<path d="M11.4373 5.39665C11.8928 5.39665 12.262 5.02743 12.262 4.57198C12.262 4.11653 11.8928 3.74731 11.4373 3.74731C10.9819 3.74731 10.6127 4.11653 10.6127 4.57198C10.6127 5.02743 10.9819 5.39665 11.4373 5.39665Z" fill="black"/>
</svg>
