<svg width="16" height="16" viewBox="0 0 16 16" fill="none" xmlns="http://www.w3.org/2000/svg">
<path d="M11.3333 8.75335V11.218H9.90467V8.91802C9.90467 8.34068 9.698 7.94668 9.18067 7.94668C8.786 7.94668 8.55067 8.21202 8.44733 8.46935C8.41 8.56135 8.4 8.68935 8.4 8.81735V11.218H6.97067C6.97067 11.218 6.99 7.32335 6.97067 6.92002H8.4V7.52868L8.39067 7.54268H8.4V7.52935C8.59 7.23602 8.92867 6.81868 9.688 6.81868C10.628 6.81868 11.3333 7.43335 11.3333 8.75335ZM5.47533 4.84735C4.98667 4.84735 4.66667 5.16868 4.66667 5.59002C4.66667 6.00335 4.97733 6.33335 5.45667 6.33335H5.466C5.96467 6.33335 6.27467 6.00268 6.27467 5.59002C6.26533 5.16868 5.96467 4.84735 5.47533 4.84735ZM4.75133 11.218H6.18067V6.92002H4.75133V11.218Z" fill="black"/>
<path d="M8 13.3333C9.41449 13.3333 10.771 12.7714 11.7712 11.7712C12.7714 10.771 13.3333 9.41447 13.3333 7.99998C13.3333 6.58549 12.7714 5.22894 11.7712 4.22874C10.771 3.22855 9.41449 2.66665 8 2.66665C6.58551 2.66665 5.22896 3.22855 4.22876 4.22874C3.22857 5.22894 2.66667 6.58549 2.66667 7.99998C2.66667 9.41447 3.22857 10.771 4.22876 11.7712C5.22896 12.7714 6.58551 13.3333 8 13.3333ZM8 14.6666C4.318 14.6666 1.33333 11.682 1.33333 7.99998C1.33333 4.31798 4.318 1.33331 8 1.33331C11.682 1.33331 14.6667 4.31798 14.6667 7.99998C14.6667 11.682 11.682 14.6666 8 14.6666Z" fill="black"/>
</svg>
